<?xml version="1.0" encoding="UTF-8"?>
<svg width="272px" height="90px" viewBox="0 0 272 90" version="1.1" xmlns="http://www.w3.org/2000/svg" xmlns:xlink="http://www.w3.org/1999/xlink">
    <!-- Generator: Sketch 51.2 (57519) - http://www.bohemiancoding.com/sketch -->
    <title>Skybound-Logo</title>
    <desc>Created with Sketch.</desc>
    <defs></defs>
    <g id="Skybound-Logo" stroke="none" stroke-width="1" fill="none" fill-rule="evenodd">
        <g transform="translate(14.000000, 0.000000)" fill="#FFFFFF" id="Group">
            <g transform="translate(0.934866, 0.000000)">
                <path d="M232.325174,44.7453808 C228.33043,59.1003935 222.422116,62.2130444 220.375902,62.8668916 C219.352795,63.1895831 218.430456,63.4329243 218.430456,63.4329243 L229.019356,33.9516132 C229.019356,33.9516132 229.591062,33.7844484 230.235774,33.6839379 C234.664438,32.9539144 234.057772,38.5655732 232.325174,44.7453808 M220.221665,30.410684 L206.605364,68.4375 C206.605364,68.4375 212.010865,67.3530448 214.715157,66.7859541 C231.601048,63.1834468 237.595974,59.8833173 241.762435,41.865491 C243.335655,35.0635765 239.898221,26.6695781 230.759152,28.3401681 C226.568012,29.1114538 220.221665,30.410684 220.221665,30.410684 Z" id="Fill-5"></path>
                <path d="M178.442148,38.5202181 L166.353255,72.3346315 C166.210082,72.7307135 165.784714,73.0123031 164.543885,73.2464454 L164.204628,73.3073017 C163.075847,73.5270035 162.598605,73.4073537 162.741778,73.0184919 L174.828596,39.2082044 L164.434057,41.1721113 L151.559192,77.1684227 C150.973014,78.7393419 152.70976,79.1395498 156.780842,78.3711094 L168.986386,75.9798242 C173.054356,75.2103523 175.381429,74.0386095 175.967607,72.4666588 L188.842912,36.5625 L178.442148,38.5202181 Z" id="Fill-7"></path>
                <path d="M207.250471,32.8364908 L202.535552,46.4660228 L203.370889,33.6751273 C201.596435,34.0255803 194.727549,35.3767244 192.954113,35.7271774 L179.494253,74.0625 L189.182381,72.1287118 L195.202704,55.2900788 L193.832182,71.2135228 C195.386864,70.9084598 196.939511,70.5970633 198.604079,70.2719442 C200.147569,69.9658257 201.814172,69.6364843 203.47467,69.3134764 L216.888889,30.9375 L207.250471,32.8364908 Z" id="Fill-9"></path>
                <path d="M23.0109406,60.7452047 C23.0109406,58.3861201 27.1850377,55.5042898 33.0828086,55.5042898 C36.2704532,55.5042898 36.6694324,55.7620397 36.6694324,55.7620397 L39.2643678,48.8793925 C39.2643678,48.8793925 38.4025309,48.75 37.1993103,48.75 C23.4748455,48.75 11.9358652,60.9418813 11.9358652,67.9580616 C11.9358652,73.0695839 20.3605042,70.9692844 20.3605042,73.5291861 C20.3605042,79.2359141 9.88232669,82.5266248 3.77930667,81.8030618 L0,88.7975041 C0,88.7975041 1.79069393,89.0625 3.17821993,89.0625 C19.7960691,89.0625 31.8240869,77.0672953 31.8240869,68.0874541 C31.8240869,63.1726084 23.0109406,63.1073946 23.0109406,60.7452047" id="Fill-11"></path>
                <path d="M98.0497381,50.5967215 C97.2832944,50.9283702 96.5305184,51.1338255 95.9775013,51.2475038 L99.737176,41.3408025 C100.96622,41.1040595 103.310759,41.3053432 102.471772,44.5968001 C101.62227,47.8809566 99.8444151,49.8093165 98.0497381,50.5967215 M99.0159409,61.8154168 C97.5177484,67.30535 93.9410109,69.6102042 91.6280119,70.2505574 C90.2780616,70.6270516 89.4811283,70.6687685 88.5517233,70.7918331 L94.5592124,54.9863736 C95.377173,54.8945966 96.3223485,54.8299356 96.8995468,54.9394422 C98.3083735,55.2199878 100.228163,57.3840478 99.0159409,61.8154168 M149.384648,52.1882181 C149.122858,56.3400844 147.642539,60.815256 144.894275,65.038041 C138.096161,75.4526446 126.230477,80.0383658 118.313712,75.7123318 C110.577782,71.4801606 109.123746,60.0215936 115.138595,49.7133678 C119.231552,42.6997278 125.823599,37.8365898 132.283174,36.4912224 C133.542707,33.5658305 134.495242,31.0659502 135.17232,29.0625 C125.619635,30.0897766 115.645352,36.902133 109.784002,47.2374747 C108.20906,50.0147719 107.046253,52.8431721 106.279809,55.6444565 C104.453591,53.2165376 101.86093,52.7503522 101.86093,52.7503522 C101.86093,52.7503522 108.251115,49.9876559 108.872471,44.4487054 C109.490672,39.0766222 105.875034,36.99391 100.175594,37.9940707 C94.9051109,38.9191412 90.9404204,39.7336621 90.9404204,39.7336621 L81.7819958,41.4669958 L74.7494276,50.2953175 L73.7621976,42.972973 L63.3431886,44.9357493 L56.5429716,46.237314 L45.8369405,60.9320631 L50.9350005,47.2948353 L40.9754372,49.1752209 L27.1111111,86.25 L37.0822394,84.3664857 L44.3482103,64.9076759 L42.6807483,83.3120931 L52.6508252,81.4317075 L54.5884875,60.8840888 L63.7847611,48.1312575 L65.7423994,62.1679239 L58.9831855,80.219834 L68.9459029,78.3457059 L75.691449,60.2948387 L89.9090331,42.4974012 L77.028783,76.8251279 C77.028783,76.8251279 83.4357901,75.6069968 88.7735609,74.6443812 C95.8565946,73.3668037 102.208931,72.1413721 105.547009,68.6309019 C106.656197,74.6297803 109.877574,79.6472706 115.004021,82.4287395 C125.733182,88.2638794 141.559351,82.6070789 150.714622,69.0824865 C155.989311,61.2949995 157.936436,52.6137296 156.696878,45.2955568 C154.15258,47.6859305 151.712366,49.9939134 149.384648,52.1882181 Z" id="Fill-14"></path>
                <path d="M137.846429,52.6488825 L131.413072,64.8904746 C136.306168,61.2752161 156.439132,41.4264746 175.848768,24.795665 C179.925994,21.2983629 194.452107,8.24866638 194.452107,8.24866638 C190.66634,9.84211172 174.225536,16.5966644 165.626452,19.5424689 C165.506252,17.4327059 164.591455,15.445038 162.968224,14.3099669 C160.110017,12.3160908 156.390201,13.8071004 154.972266,17.6737921 C154.657406,18.5367359 154.505295,19.4100267 154.47232,20.2626234 C148.867597,18.5708811 141.256705,13.4025308 127.29117,0 C134.221283,10.9668358 137.393286,19.4338249 138.224049,22.8887041 C138.944185,25.899695 132.450195,43.9232172 116.858238,67.5 C129.484553,59.2409866 137.846429,52.6488825 137.846429,52.6488825 Z" id="Fill-16"></path>
            </g>
        </g>
    </g>
</svg>