<?xml version="1.0" encoding="UTF-8"?>
<svg width="153px" height="17px" viewBox="0 0 153 17" version="1.1" xmlns="http://www.w3.org/2000/svg" xmlns:xlink="http://www.w3.org/1999/xlink">
    <!-- Generator: Sketch 50.2 (55047) - http://www.bohemiancoding.com/sketch -->
    <title>TheWalkingDead 1</title>
    <desc>Created with Sketch.</desc>
    <defs></defs>
    <g id="Page-1" stroke="none" stroke-width="1" fill="none" fill-rule="evenodd">
        <g id="Skybound---Home" transform="translate(-1042.000000, -14.000000)" fill="#FFFFFF">
            <g id="Skybound-Main-Nav">
                <g id="The-Walking-Dead---slim" transform="translate(1040.000000, 12.000000)">
                    <g id="Page-1">
                        <path d="M110.956622,14.1481481 L111.593111,7.44703704 L114.229577,7.04148148 L114.956941,12.8618519 L110.956622,14.1481481 Z M108.77453,3.79222222 L108.047532,17.2618519 L115.048182,16.652963 L119.86674,13.7418519 L119.957615,8.9362963 L116.68466,4.40111111 L108.77453,3.79222222 Z" id="Fill-10"></path>
                        <path d="M144.766446,14.145963 L145.320122,8.31485185 L147.614708,7.96151852 L148.2479,13.0274444 L144.766446,14.145963 Z M149.75063,5.66448148 L142.867604,5.13411111 L142.234413,16.8555926 L148.326682,16.3255926 L152.52011,13.793 L152.598892,9.61077778 L149.75063,5.66448148 Z" id="Fill-12"></path>
                        <path d="M130.594645,4.13077778 L120.776147,4.80744444 C120.776147,4.80744444 120.50279,16.3141111 120.50279,16.5170741 C120.50279,16.7204074 129.958522,16.653 129.958522,16.653 L129.685898,14.6222593 L123.412612,14.2833704 L123.957861,11.7789259 L128.958534,11.373 L129.049409,9.47781481 L124.321359,9.613 L123.957861,7.17633333 L129.958522,6.97337037 L130.594645,4.13077778 Z" id="Fill-14"></path>
                        <path d="M134.531792,10.1302963 L135.501366,7.60844444 L136.468376,9.89251852 L134.531792,10.1302963 Z M133.318908,3.92659259 L130.136827,15.1621481 L132.682785,16.3802963 L135.046626,12.1162222 L137.228352,11.8454815 L137.319227,15.9065926 L141.774652,15.5006667 L137.137844,4.19659259 L133.318908,3.92659259 Z" id="Fill-16"></path>
                        <polygon id="Fill-18" points="20.7839976 8.70888889 17.0039031 9.1137037 17.0039031 4.65888889 14.597922 4.4562963 14.5634775 5.65518519 2.17703546 6.62 3.33202364 8.43407407 8.33526241 7.91481481 7.18137352 16.0788889 11.4147423 16.0788889 11.4147423 7.91481481 14.511078 7.48333333 14.2549433 16.4033333 16.6601915 16.4033333 16.6601915 11.7462963 21.1280757 11.5440741 20.7839976 15.5933333 23.1892459 15.5933333 23.8763026 2.6337037 20.7839976 3.44407407"></polygon>
                        <polygon id="Fill-20" points="28.2455437 11.5441481 30.9391726 11.3167407 30.9391726 9.27637037 28.2455437 9.27637037 28.6295626 7.68822222 34.4030378 7.00785185 34.4030378 5.19377778 24.3965603 6.78118519 24.0114421 16.0797037 34.7877896 15.8534074 34.7877896 13.8119259 28.2455437 13.8119259"></polygon>
                        <polygon id="Fill-22" points="51.8289586 3.78103704 49.520448 8.08992593 46.8264527 4.46140741 42.5934504 10.8117778 41.053344 3.1002963 37.9742305 5.36918519 41.4384622 14.6677037 46.0562163 11.0384444 49.1353298 16.0277037 55.2935567 3.78103704"></polygon>
                        <path d="M56.8753995,9.51418519 L57.6445366,7.63974074 L58.6192411,9.30566667 L56.8753995,9.51418519 Z M81.165695,11.8597407 L77.0133073,7.12011111 L78.5098085,3.71825926 L75.2159669,3.71825926 L74.3178463,6.66677778 L72.5212388,3.49122222 L70.4248913,4.39825926 L71.8975745,12.2049259 C70.9591466,12.3323333 67.5051749,12.7608519 67.5051749,12.1723333 C67.5051749,11.4923333 67.1204232,4.00751852 67.1204232,4.00751852 L63.6565579,3.55455556 L64.0193239,14.429 L58.1267589,2.76455556 L49.629974,16.0278889 L53.4778582,16.0278889 L55.7871017,11.719 L58.0963452,11.4923333 L59.6357187,15.3478889 L64.0354468,14.9156667 L64.042409,15.1208519 L70.9778345,14.6675185 L71.9609669,12.5423333 L72.5212388,15.5112222 L74.9165934,15.0578889 L74.6172199,9.61455556 L79.3038629,15.2001111 L81.165695,12.8464074 L81.165695,15.8067778 L84.2437092,15.8067778 L84.2437092,4.46714815 L81.165695,4.92048148 L81.165695,11.8597407 Z" id="Fill-24"></path>
                        <polygon id="Fill-26" points="98.1617931 11.8774444 100.916982 11.6504074 99.2640154 13.0115185 97.3358593 13.0115185 95.9580816 10.2892963 96.5091927 7.11448148 101.743283 5.75374074 99.2640154 4.16633333 95.9580816 4.16633333 93.9269586 7.50855556 94.1321596 4.84411111 91.8533298 6.20485185 91.5686135 10.5137407 85.019039 5.52448148 85.3048546 16.4107778 87.866935 16.4107778 88.1516513 11.4211481 93.2772778 15.9574444 93.5315804 12.6518889 95.6821596 16.4133704 101.743283 16.4133704 104.774027 11.8774444 104.774027 9.38225926 98.4369823 9.6092963"></polygon>
                        <polygon id="Fill-28" points="152.76723 18.5598519 152.76723 17.6357778 152.425717 17.6357778 152.425717 17.5120741 153.247254 17.5120741 153.247254 17.6357778 152.904642 17.6357778 152.904642 18.5598519"></polygon>
                        <path d="M153.383823,18.5598519 L153.383823,17.5120741 L153.590123,17.5120741 L153.835631,18.2539259 C153.857983,18.3231852 153.874473,18.3746667 153.885099,18.4091111 C153.896825,18.370963 153.915147,18.315037 153.940064,18.2413333 L154.188137,17.5120741 L154.372818,17.5120741 L154.372818,18.5598519 L154.240537,18.5598519 L154.240537,17.6831852 L153.939697,18.5598519 L153.815844,18.5598519 L153.516104,17.668 L153.516104,18.5598519 L153.383823,18.5598519 Z" id="Fill-30"></path>
                    </g>
                </g>
            </g>
        </g>
    </g>
</svg>