<svg xmlns="http://www.w3.org/2000/svg" viewBox="0 0 1944 915"><defs><style>.cls-1{fill:#9146ff;}.cls-2{fill:#fff;}</style></defs><title>Asset 2</title><g id="Layer_2" data-name="Layer 2"><g id="Layer_3" data-name="Layer 3"><path class="cls-1" d="M0,350V915s57.83-9.74,112-17V692c22.46-1.94,45.41-3.87,67.88-5.67,18.21,68.6,34.58,129.58,52.76,196.53,0,0,53.1-6,111.2-11.3-18.2-65.66-34.86-126.44-53.07-193.5C309.15,659.69,327.6,641.9,346,624V401c-18.33-16.72-36.22-33.9-54.55-51ZM234,566c-4.15,4.39-8.85,9.58-13,14-36.1,1.89-71.92,3.85-108,6V457c36.11-1,72-1.93,108.09-2.79,4.13,3.82,8.77,8,12.91,11.79C234,466,234.06,532.36,234,566ZM991.22,350c-44.86,164-89.68,327.06-134.82,491.67,0,0,77.86-1.33,113.22-1,31.37-124,62.46-246.58,93.67-370.93q32,127,64.13,255-63.54-1.46-127.11-2c52.44,40.22,155,121.11,155,121.16,51.66,1.68,114.94,4.56,114.94,4.56C1224.92,679.2,1180.29,515,1135.17,350ZM1420,764V350H1306V850c125.4,5.12,275.15,19.61,275.15,19.61-8.65-34.31-15.82-62.59-24.47-96.55C1511.25,769.47,1465.47,766.82,1420,764Zm524-141.69q-27.46-29.61-55-58.31-78.93-4.47-157.94-8.21c-4.45-4.42-8.65-8.4-13.1-12.79V467c4.43-4.08,8.49-8.5,12.92-12.6q43.07,1,86.12,2.18c4.45,4.41,8.51,9,13,13.42v36c37.87,1.49,76.15,2.62,114,4.29V350H1659.64c-18.33,17.12-36.32,34.26-54.64,51V600c18.39,17.85,36.89,36.2,55.26,54.51,52.38,3.4,104.43,7.37,156.74,11.49,4.44,4.65,9.56,9.32,14,14,0,35.57,0,107,0,107-4.43,3.83-9.13,7.15-13.56,11q-42.95-4.8-85.94-9.15c-4.44-4.66-9.06-9.17-13.5-13.8V707c-37.55-3-75.41-6.39-113-9V827c18.38,18.69,30.3,30.27,48.66,49.49,138.9,12.07,290.34,38,290.34,38ZM392,867s57.95-5.34,112-9V350H392ZM835.61,350q-47.08,172-94.35,345.76Q694.46,524,647.84,350H535c44.55,168.8,89,333.85,133.71,498,0,0,73.72-3.32,144.14-5.16C858,677.23,903.52,514,948.46,350ZM0,350V915s57.83-9.74,112-17V692c22.46-1.94,45.41-3.87,67.88-5.67,18.21,68.6,34.58,129.58,52.76,196.53,0,0,53.1-6,111.2-11.3-18.2-65.66-34.86-126.44-53.07-193.5C309.15,659.69,327.6,641.9,346,624V401c-18.33-16.72-36.22-33.9-54.55-51ZM234,566c-4.15,4.39-8.85,9.58-13,14-36.1,1.89-71.92,3.85-108,6V457c36.11-1,72-1.93,108.09-2.79,4.13,3.82,8.77,8,12.91,11.79C234,466,234.06,532.36,234,566ZM991.22,350c-44.86,164-89.68,327.06-134.82,491.67,0,0,77.86-1.33,113.22-1,31.37-124,62.46-246.58,93.67-370.93q32,127,64.13,255-63.54-1.46-127.11-2c52.44,40.22,155,121.11,155,121.16,51.66,1.68,114.94,4.56,114.94,4.56C1224.92,679.2,1180.29,515,1135.17,350ZM1420,764V350H1306V850c125.4,5.12,275.15,19.61,275.15,19.61-8.65-34.31-15.82-62.59-24.47-96.55C1511.25,769.47,1465.47,766.82,1420,764Zm524-141.69q-27.46-29.61-55-58.31-78.93-4.47-157.94-8.21c-4.45-4.42-8.65-8.4-13.1-12.79V467c4.43-4.08,8.49-8.5,12.92-12.6q43.07,1,86.12,2.18c4.45,4.41,8.51,9,13,13.42v36c37.87,1.49,76.15,2.62,114,4.29V350H1659.64c-18.33,17.12-36.32,34.26-54.64,51V600c18.39,17.85,36.89,36.2,55.26,54.51,52.38,3.4,104.43,7.37,156.74,11.49,4.44,4.65,9.56,9.32,14,14,0,35.57,0,107,0,107-4.43,3.83-9.13,7.15-13.56,11q-42.95-4.8-85.94-9.15c-4.44-4.66-9.06-9.17-13.5-13.8V707c-37.55-3-75.41-6.39-113-9V827c18.38,18.69,30.3,30.27,48.66,49.49,138.9,12.07,290.34,38,290.34,38ZM392,867s57.95-5.34,112-9V350H392ZM835.61,350q-47.08,172-94.35,345.76Q694.46,524,647.84,350H535c44.55,168.8,89,333.85,133.71,498,0,0,73.72-3.32,144.14-5.16C858,677.23,903.52,514,948.46,350Z"></path><polygon class="cls-2" points="551 74 551 160 476 160 476 181 551 181 551 265 434.4 265 392 222.6 392 0 476 0 476 74 551 74"></polygon><polygon class="cls-2" points="867 74 867 265 613.29 265 571 222.56 571 74 657 74 657 180 678 180 678 74 762 74 762 180 783 180 783 74 867 74"></polygon><rect class="cls-2" x="889" y="74" width="85" height="191"></rect><rect class="cls-2" x="889" width="85" height="53"></rect><polygon class="cls-2" points="1345 74 1345 160 1260 160 1260 181 1345 181 1345 265 1217.5 265 1175 222.56 1175 116.44 1217.5 74 1345 74"></polygon><polygon class="cls-2" points="1557 116.44 1557 265 1472 265 1472 159 1451 159 1451 265 1366 265 1366 0 1451 0 1451 74 1514.6 74 1557 116.44"></polygon><polygon class="cls-2" points="1154 74 1154 160 1080 160 1080 181 1154 181 1154 265 1037.4 265 995 222.6 995 0 1080 0 1080 74 1154 74"></polygon></g></g></svg>